<mxfile host="app.diagrams.net" modified="2024-05-22T12:42:39.915Z" agent="Mozilla/5.0 (Windows NT 10.0; Win64; x64) AppleWebKit/537.36 (KHTML, like Gecko) Chrome/121.0.0.0 Safari/537.36" etag="lqMc6H90MZx7G667S41M" version="24.4.4" type="device">
  <diagram name="Página-1" id="LgeUJABe8sgun6ls6cQh">
    <mxGraphModel dx="2887" dy="1320" grid="1" gridSize="10" guides="1" tooltips="1" connect="1" arrows="1" fold="1" page="0" pageScale="1" pageWidth="827" pageHeight="1169" math="0" shadow="0">
      <root>
        <mxCell id="0" />
        <mxCell id="1" parent="0" />
        <mxCell id="4b1C1h9-l_e4xWgccLD7-125" value="" style="rounded=0;whiteSpace=wrap;html=1;" vertex="1" parent="1">
          <mxGeometry x="-80" y="-80" width="920" height="1560" as="geometry" />
        </mxCell>
        <mxCell id="4b1C1h9-l_e4xWgccLD7-7" style="edgeStyle=orthogonalEdgeStyle;rounded=1;orthogonalLoop=1;jettySize=auto;html=1;exitX=0.5;exitY=1;exitDx=0;exitDy=0;" edge="1" parent="1" source="4b1C1h9-l_e4xWgccLD7-1" target="4b1C1h9-l_e4xWgccLD7-2">
          <mxGeometry relative="1" as="geometry" />
        </mxCell>
        <mxCell id="4b1C1h9-l_e4xWgccLD7-1" value="&lt;span&gt;INÍCIO&lt;/span&gt;" style="ellipse;whiteSpace=wrap;html=1;fillColor=#f8cecc;strokeColor=#b85450;rounded=1;fontStyle=0;" vertex="1" parent="1">
          <mxGeometry x="310" y="40" width="130" height="80" as="geometry" />
        </mxCell>
        <mxCell id="4b1C1h9-l_e4xWgccLD7-8" style="edgeStyle=orthogonalEdgeStyle;rounded=1;orthogonalLoop=1;jettySize=auto;html=1;exitX=0.5;exitY=1;exitDx=0;exitDy=0;entryX=0.5;entryY=0;entryDx=0;entryDy=0;" edge="1" parent="1" source="4b1C1h9-l_e4xWgccLD7-2" target="4b1C1h9-l_e4xWgccLD7-5">
          <mxGeometry relative="1" as="geometry" />
        </mxCell>
        <mxCell id="4b1C1h9-l_e4xWgccLD7-2" value="Abrir APP" style="rounded=1;whiteSpace=wrap;html=1;fillColor=#dae8fc;strokeColor=#6c8ebf;" vertex="1" parent="1">
          <mxGeometry x="315" y="140" width="120" height="60" as="geometry" />
        </mxCell>
        <mxCell id="4b1C1h9-l_e4xWgccLD7-5" value="Usuário" style="rounded=1;whiteSpace=wrap;html=1;fillColor=#dae8fc;strokeColor=#6c8ebf;" vertex="1" parent="1">
          <mxGeometry x="315" y="220" width="120" height="60" as="geometry" />
        </mxCell>
        <mxCell id="4b1C1h9-l_e4xWgccLD7-11" style="edgeStyle=orthogonalEdgeStyle;rounded=1;orthogonalLoop=1;jettySize=auto;html=1;exitX=0.5;exitY=1;exitDx=0;exitDy=0;entryX=0.5;entryY=0;entryDx=0;entryDy=0;" edge="1" parent="1" source="4b1C1h9-l_e4xWgccLD7-6" target="4b1C1h9-l_e4xWgccLD7-10">
          <mxGeometry relative="1" as="geometry" />
        </mxCell>
        <mxCell id="4b1C1h9-l_e4xWgccLD7-6" value="Cadastrar" style="rounded=1;whiteSpace=wrap;html=1;fillColor=#dae8fc;strokeColor=#6c8ebf;" vertex="1" parent="1">
          <mxGeometry x="520" y="300" width="120" height="60" as="geometry" />
        </mxCell>
        <mxCell id="4b1C1h9-l_e4xWgccLD7-14" style="edgeStyle=orthogonalEdgeStyle;rounded=1;orthogonalLoop=1;jettySize=auto;html=1;exitX=0.5;exitY=1;exitDx=0;exitDy=0;entryX=0.5;entryY=0;entryDx=0;entryDy=0;" edge="1" parent="1" source="4b1C1h9-l_e4xWgccLD7-10" target="4b1C1h9-l_e4xWgccLD7-13">
          <mxGeometry relative="1" as="geometry" />
        </mxCell>
        <mxCell id="4b1C1h9-l_e4xWgccLD7-10" value="Inserir nome" style="rounded=1;whiteSpace=wrap;html=1;fillColor=#dae8fc;strokeColor=#6c8ebf;" vertex="1" parent="1">
          <mxGeometry x="520" y="390" width="120" height="60" as="geometry" />
        </mxCell>
        <mxCell id="4b1C1h9-l_e4xWgccLD7-20" style="edgeStyle=orthogonalEdgeStyle;rounded=1;orthogonalLoop=1;jettySize=auto;html=1;exitX=0.5;exitY=1;exitDx=0;exitDy=0;entryX=0.5;entryY=0;entryDx=0;entryDy=0;" edge="1" parent="1" source="4b1C1h9-l_e4xWgccLD7-12" target="4b1C1h9-l_e4xWgccLD7-19">
          <mxGeometry relative="1" as="geometry" />
        </mxCell>
        <mxCell id="4b1C1h9-l_e4xWgccLD7-12" value="Inserir EMAIL" style="rounded=1;whiteSpace=wrap;html=1;fillColor=#dae8fc;strokeColor=#6c8ebf;" vertex="1" parent="1">
          <mxGeometry x="520" y="580" width="120" height="60" as="geometry" />
        </mxCell>
        <mxCell id="4b1C1h9-l_e4xWgccLD7-17" style="edgeStyle=orthogonalEdgeStyle;rounded=1;orthogonalLoop=1;jettySize=auto;html=1;exitX=0.5;exitY=1;exitDx=0;exitDy=0;entryX=0.5;entryY=0;entryDx=0;entryDy=0;" edge="1" parent="1" source="4b1C1h9-l_e4xWgccLD7-13" target="4b1C1h9-l_e4xWgccLD7-12">
          <mxGeometry relative="1" as="geometry" />
        </mxCell>
        <mxCell id="4b1C1h9-l_e4xWgccLD7-18" value="NÃO" style="edgeLabel;html=1;align=center;verticalAlign=middle;resizable=0;points=[];rounded=1;" vertex="1" connectable="0" parent="4b1C1h9-l_e4xWgccLD7-17">
          <mxGeometry x="-0.1333" y="-1" relative="1" as="geometry">
            <mxPoint x="1" y="-3" as="offset" />
          </mxGeometry>
        </mxCell>
        <mxCell id="4b1C1h9-l_e4xWgccLD7-38" style="edgeStyle=orthogonalEdgeStyle;rounded=1;orthogonalLoop=1;jettySize=auto;html=1;exitX=1;exitY=0.5;exitDx=0;exitDy=0;" edge="1" parent="1" source="4b1C1h9-l_e4xWgccLD7-13" target="4b1C1h9-l_e4xWgccLD7-37">
          <mxGeometry relative="1" as="geometry" />
        </mxCell>
        <mxCell id="4b1C1h9-l_e4xWgccLD7-39" value="SIM" style="edgeLabel;html=1;align=center;verticalAlign=middle;resizable=0;points=[];rounded=1;" vertex="1" connectable="0" parent="4b1C1h9-l_e4xWgccLD7-38">
          <mxGeometry x="-0.0154" y="1" relative="1" as="geometry">
            <mxPoint x="-7" y="1" as="offset" />
          </mxGeometry>
        </mxCell>
        <mxCell id="4b1C1h9-l_e4xWgccLD7-13" value="Campo&lt;div&gt;vazio?&lt;/div&gt;" style="rhombus;whiteSpace=wrap;html=1;rounded=0;fillColor=#d5e8d4;strokeColor=#82b366;" vertex="1" parent="1">
          <mxGeometry x="540" y="470" width="80" height="80" as="geometry" />
        </mxCell>
        <mxCell id="4b1C1h9-l_e4xWgccLD7-33" style="edgeStyle=orthogonalEdgeStyle;rounded=1;orthogonalLoop=1;jettySize=auto;html=1;exitX=1;exitY=0.5;exitDx=0;exitDy=0;entryX=0;entryY=0.5;entryDx=0;entryDy=0;" edge="1" parent="1" source="4b1C1h9-l_e4xWgccLD7-19" target="4b1C1h9-l_e4xWgccLD7-32">
          <mxGeometry relative="1" as="geometry" />
        </mxCell>
        <mxCell id="4b1C1h9-l_e4xWgccLD7-35" value="SIM" style="edgeLabel;html=1;align=center;verticalAlign=middle;resizable=0;points=[];rounded=1;" vertex="1" connectable="0" parent="4b1C1h9-l_e4xWgccLD7-33">
          <mxGeometry x="-0.2165" y="1" relative="1" as="geometry">
            <mxPoint x="-1" y="1" as="offset" />
          </mxGeometry>
        </mxCell>
        <mxCell id="4b1C1h9-l_e4xWgccLD7-42" style="edgeStyle=orthogonalEdgeStyle;rounded=1;orthogonalLoop=1;jettySize=auto;html=1;exitX=0.5;exitY=1;exitDx=0;exitDy=0;entryX=0.5;entryY=0;entryDx=0;entryDy=0;" edge="1" parent="1" source="4b1C1h9-l_e4xWgccLD7-19" target="4b1C1h9-l_e4xWgccLD7-23">
          <mxGeometry relative="1" as="geometry" />
        </mxCell>
        <mxCell id="4b1C1h9-l_e4xWgccLD7-43" value="NÃO" style="edgeLabel;html=1;align=center;verticalAlign=middle;resizable=0;points=[];rounded=1;" vertex="1" connectable="0" parent="4b1C1h9-l_e4xWgccLD7-42">
          <mxGeometry x="-0.4358" relative="1" as="geometry">
            <mxPoint y="2" as="offset" />
          </mxGeometry>
        </mxCell>
        <mxCell id="4b1C1h9-l_e4xWgccLD7-19" value="Campo&lt;div&gt;&amp;nbsp;vazio?&lt;/div&gt;" style="rhombus;whiteSpace=wrap;html=1;rounded=0;fillColor=#d5e8d4;strokeColor=#82b366;" vertex="1" parent="1">
          <mxGeometry x="540" y="670" width="80" height="80" as="geometry" />
        </mxCell>
        <mxCell id="4b1C1h9-l_e4xWgccLD7-27" style="edgeStyle=orthogonalEdgeStyle;rounded=1;orthogonalLoop=1;jettySize=auto;html=1;exitX=0.5;exitY=1;exitDx=0;exitDy=0;entryX=0.5;entryY=0;entryDx=0;entryDy=0;" edge="1" parent="1" source="4b1C1h9-l_e4xWgccLD7-23" target="4b1C1h9-l_e4xWgccLD7-26">
          <mxGeometry relative="1" as="geometry" />
        </mxCell>
        <mxCell id="4b1C1h9-l_e4xWgccLD7-23" value="Inserir SENHA" style="rounded=1;whiteSpace=wrap;html=1;fillColor=#dae8fc;strokeColor=#6c8ebf;" vertex="1" parent="1">
          <mxGeometry x="520" y="780" width="120" height="60" as="geometry" />
        </mxCell>
        <mxCell id="4b1C1h9-l_e4xWgccLD7-29" style="edgeStyle=orthogonalEdgeStyle;rounded=1;orthogonalLoop=1;jettySize=auto;html=1;exitX=1;exitY=0.5;exitDx=0;exitDy=0;entryX=0;entryY=0.5;entryDx=0;entryDy=0;" edge="1" parent="1" source="4b1C1h9-l_e4xWgccLD7-26" target="4b1C1h9-l_e4xWgccLD7-28">
          <mxGeometry relative="1" as="geometry" />
        </mxCell>
        <mxCell id="4b1C1h9-l_e4xWgccLD7-30" value="NÃO" style="edgeLabel;html=1;align=center;verticalAlign=middle;resizable=0;points=[];rounded=1;" vertex="1" connectable="0" parent="4b1C1h9-l_e4xWgccLD7-29">
          <mxGeometry x="-0.1515" y="1" relative="1" as="geometry">
            <mxPoint x="-3" y="1" as="offset" />
          </mxGeometry>
        </mxCell>
        <mxCell id="4b1C1h9-l_e4xWgccLD7-46" style="edgeStyle=orthogonalEdgeStyle;rounded=1;orthogonalLoop=1;jettySize=auto;html=1;exitX=0.5;exitY=1;exitDx=0;exitDy=0;entryX=0.5;entryY=0;entryDx=0;entryDy=0;" edge="1" parent="1" source="4b1C1h9-l_e4xWgccLD7-26" target="4b1C1h9-l_e4xWgccLD7-44">
          <mxGeometry relative="1" as="geometry" />
        </mxCell>
        <mxCell id="4b1C1h9-l_e4xWgccLD7-26" value="Carectere&lt;div&gt;&amp;gt;=&amp;nbsp;&lt;span style=&quot;background-color: initial;&quot;&gt;8?&lt;/span&gt;&lt;/div&gt;" style="rhombus;whiteSpace=wrap;html=1;rounded=0;fillColor=#d5e8d4;strokeColor=#82b366;" vertex="1" parent="1">
          <mxGeometry x="540" y="860" width="80" height="80" as="geometry" />
        </mxCell>
        <mxCell id="4b1C1h9-l_e4xWgccLD7-31" style="edgeStyle=orthogonalEdgeStyle;rounded=1;orthogonalLoop=1;jettySize=auto;html=1;exitX=0.5;exitY=0;exitDx=0;exitDy=0;entryX=1;entryY=0.5;entryDx=0;entryDy=0;" edge="1" parent="1" source="4b1C1h9-l_e4xWgccLD7-28" target="4b1C1h9-l_e4xWgccLD7-23">
          <mxGeometry relative="1" as="geometry" />
        </mxCell>
        <mxCell id="4b1C1h9-l_e4xWgccLD7-28" value="Mensagem de ERRO" style="rounded=1;whiteSpace=wrap;html=1;fillColor=#fff2cc;strokeColor=#d6b656;" vertex="1" parent="1">
          <mxGeometry x="680" y="870" width="120" height="60" as="geometry" />
        </mxCell>
        <mxCell id="4b1C1h9-l_e4xWgccLD7-36" style="edgeStyle=orthogonalEdgeStyle;rounded=1;orthogonalLoop=1;jettySize=auto;html=1;exitX=0.5;exitY=0;exitDx=0;exitDy=0;entryX=1;entryY=0.5;entryDx=0;entryDy=0;" edge="1" parent="1" source="4b1C1h9-l_e4xWgccLD7-32" target="4b1C1h9-l_e4xWgccLD7-12">
          <mxGeometry relative="1" as="geometry" />
        </mxCell>
        <mxCell id="4b1C1h9-l_e4xWgccLD7-32" value="Mensagem de ERRO" style="rounded=1;whiteSpace=wrap;html=1;fillColor=#fff2cc;strokeColor=#d6b656;" vertex="1" parent="1">
          <mxGeometry x="680" y="680" width="120" height="60" as="geometry" />
        </mxCell>
        <mxCell id="4b1C1h9-l_e4xWgccLD7-37" value="Mensagem de ERRO" style="rounded=1;whiteSpace=wrap;html=1;fillColor=#fff2cc;strokeColor=#d6b656;" vertex="1" parent="1">
          <mxGeometry x="680" y="480" width="120" height="60" as="geometry" />
        </mxCell>
        <mxCell id="4b1C1h9-l_e4xWgccLD7-40" style="edgeStyle=orthogonalEdgeStyle;rounded=1;orthogonalLoop=1;jettySize=auto;html=1;exitX=0.5;exitY=0;exitDx=0;exitDy=0;entryX=0.997;entryY=0.451;entryDx=0;entryDy=0;entryPerimeter=0;" edge="1" parent="1" source="4b1C1h9-l_e4xWgccLD7-37" target="4b1C1h9-l_e4xWgccLD7-10">
          <mxGeometry relative="1" as="geometry" />
        </mxCell>
        <mxCell id="4b1C1h9-l_e4xWgccLD7-48" style="edgeStyle=orthogonalEdgeStyle;rounded=1;orthogonalLoop=1;jettySize=auto;html=1;exitX=0.5;exitY=1;exitDx=0;exitDy=0;entryX=0.5;entryY=0;entryDx=0;entryDy=0;" edge="1" parent="1" source="4b1C1h9-l_e4xWgccLD7-44" target="4b1C1h9-l_e4xWgccLD7-47">
          <mxGeometry relative="1" as="geometry" />
        </mxCell>
        <mxCell id="4b1C1h9-l_e4xWgccLD7-44" value="Confirmar SENHA" style="rounded=1;whiteSpace=wrap;html=1;fillColor=#dae8fc;strokeColor=#6c8ebf;" vertex="1" parent="1">
          <mxGeometry x="520" y="960" width="120" height="60" as="geometry" />
        </mxCell>
        <mxCell id="4b1C1h9-l_e4xWgccLD7-50" style="edgeStyle=orthogonalEdgeStyle;rounded=1;orthogonalLoop=1;jettySize=auto;html=1;exitX=1;exitY=0.5;exitDx=0;exitDy=0;entryX=0;entryY=0.5;entryDx=0;entryDy=0;" edge="1" parent="1" source="4b1C1h9-l_e4xWgccLD7-47" target="4b1C1h9-l_e4xWgccLD7-49">
          <mxGeometry relative="1" as="geometry" />
        </mxCell>
        <mxCell id="4b1C1h9-l_e4xWgccLD7-51" value="NÃO" style="edgeLabel;html=1;align=center;verticalAlign=middle;resizable=0;points=[];rounded=1;" vertex="1" connectable="0" parent="4b1C1h9-l_e4xWgccLD7-50">
          <mxGeometry x="-0.1473" y="-1" relative="1" as="geometry">
            <mxPoint x="-3" y="-1" as="offset" />
          </mxGeometry>
        </mxCell>
        <mxCell id="4b1C1h9-l_e4xWgccLD7-54" style="edgeStyle=orthogonalEdgeStyle;rounded=1;orthogonalLoop=1;jettySize=auto;html=1;exitX=0.5;exitY=1;exitDx=0;exitDy=0;entryX=0.5;entryY=0;entryDx=0;entryDy=0;" edge="1" parent="1" source="4b1C1h9-l_e4xWgccLD7-47" target="4b1C1h9-l_e4xWgccLD7-53">
          <mxGeometry relative="1" as="geometry" />
        </mxCell>
        <mxCell id="4b1C1h9-l_e4xWgccLD7-47" value="Senhas iguais?" style="rhombus;whiteSpace=wrap;html=1;rounded=0;fillColor=#d5e8d4;strokeColor=#82b366;" vertex="1" parent="1">
          <mxGeometry x="540" y="1040" width="80" height="80" as="geometry" />
        </mxCell>
        <mxCell id="4b1C1h9-l_e4xWgccLD7-52" style="edgeStyle=orthogonalEdgeStyle;rounded=1;orthogonalLoop=1;jettySize=auto;html=1;exitX=0.5;exitY=0;exitDx=0;exitDy=0;entryX=1;entryY=0.5;entryDx=0;entryDy=0;" edge="1" parent="1" source="4b1C1h9-l_e4xWgccLD7-49" target="4b1C1h9-l_e4xWgccLD7-44">
          <mxGeometry relative="1" as="geometry" />
        </mxCell>
        <mxCell id="4b1C1h9-l_e4xWgccLD7-49" value="Mensagem de ERRO" style="rounded=1;whiteSpace=wrap;html=1;fillColor=#fff2cc;strokeColor=#d6b656;" vertex="1" parent="1">
          <mxGeometry x="680" y="1050" width="120" height="60" as="geometry" />
        </mxCell>
        <mxCell id="4b1C1h9-l_e4xWgccLD7-56" style="edgeStyle=orthogonalEdgeStyle;rounded=1;orthogonalLoop=1;jettySize=auto;html=1;exitX=0.5;exitY=1;exitDx=0;exitDy=0;entryX=0.5;entryY=0;entryDx=0;entryDy=0;" edge="1" parent="1" source="4b1C1h9-l_e4xWgccLD7-53" target="4b1C1h9-l_e4xWgccLD7-55">
          <mxGeometry relative="1" as="geometry" />
        </mxCell>
        <mxCell id="4b1C1h9-l_e4xWgccLD7-53" value="Clicar em CADASTRAR" style="rounded=1;whiteSpace=wrap;html=1;fillColor=#dae8fc;strokeColor=#6c8ebf;" vertex="1" parent="1">
          <mxGeometry x="520" y="1140" width="120" height="60" as="geometry" />
        </mxCell>
        <mxCell id="4b1C1h9-l_e4xWgccLD7-58" style="edgeStyle=orthogonalEdgeStyle;rounded=1;orthogonalLoop=1;jettySize=auto;html=1;exitX=0.5;exitY=1;exitDx=0;exitDy=0;entryX=1;entryY=0.5;entryDx=0;entryDy=0;" edge="1" parent="1" source="4b1C1h9-l_e4xWgccLD7-55" target="4b1C1h9-l_e4xWgccLD7-57">
          <mxGeometry relative="1" as="geometry" />
        </mxCell>
        <mxCell id="4b1C1h9-l_e4xWgccLD7-55" value="Tela de login" style="rounded=1;whiteSpace=wrap;html=1;fillColor=#dae8fc;strokeColor=#6c8ebf;" vertex="1" parent="1">
          <mxGeometry x="520" y="1220" width="120" height="60" as="geometry" />
        </mxCell>
        <mxCell id="4b1C1h9-l_e4xWgccLD7-57" value="FIM" style="ellipse;whiteSpace=wrap;html=1;fontStyle=0;fillColor=#f8cecc;strokeColor=#b85450;rounded=1;labelBackgroundColor=none;labelBorderColor=none;textShadow=0;" vertex="1" parent="1">
          <mxGeometry x="310" y="1370" width="130" height="80" as="geometry" />
        </mxCell>
        <mxCell id="4b1C1h9-l_e4xWgccLD7-59" value="Possui&amp;nbsp;&lt;div&gt;conta?&lt;/div&gt;" style="rhombus;whiteSpace=wrap;html=1;rounded=0;fillColor=#d5e8d4;strokeColor=#82b366;" vertex="1" parent="1">
          <mxGeometry x="335" y="290" width="80" height="80" as="geometry" />
        </mxCell>
        <mxCell id="4b1C1h9-l_e4xWgccLD7-61" style="edgeStyle=orthogonalEdgeStyle;rounded=1;orthogonalLoop=1;jettySize=auto;html=1;exitX=0.5;exitY=1;exitDx=0;exitDy=0;entryX=0.5;entryY=0;entryDx=0;entryDy=0;" edge="1" parent="1" target="4b1C1h9-l_e4xWgccLD7-59">
          <mxGeometry relative="1" as="geometry">
            <mxPoint x="374.85" y="280" as="sourcePoint" />
            <mxPoint x="374.85" y="300" as="targetPoint" />
          </mxGeometry>
        </mxCell>
        <mxCell id="4b1C1h9-l_e4xWgccLD7-63" style="edgeStyle=orthogonalEdgeStyle;rounded=1;orthogonalLoop=1;jettySize=auto;html=1;exitX=1;exitY=0.5;exitDx=0;exitDy=0;entryX=0;entryY=0.5;entryDx=0;entryDy=0;" edge="1" parent="1" source="4b1C1h9-l_e4xWgccLD7-59" target="4b1C1h9-l_e4xWgccLD7-6">
          <mxGeometry relative="1" as="geometry">
            <mxPoint x="415" y="340" as="sourcePoint" />
            <mxPoint x="415" y="360" as="targetPoint" />
          </mxGeometry>
        </mxCell>
        <mxCell id="4b1C1h9-l_e4xWgccLD7-64" value="NÃO" style="edgeLabel;html=1;align=center;verticalAlign=middle;resizable=0;points=[];hachureGap=4;rounded=1;" vertex="1" connectable="0" parent="4b1C1h9-l_e4xWgccLD7-63">
          <mxGeometry x="-0.2927" y="1" relative="1" as="geometry">
            <mxPoint x="8" y="1" as="offset" />
          </mxGeometry>
        </mxCell>
        <mxCell id="4b1C1h9-l_e4xWgccLD7-71" value="" style="edgeStyle=orthogonalEdgeStyle;rounded=1;hachureGap=4;orthogonalLoop=1;jettySize=auto;html=1;exitX=0.5;exitY=1;exitDx=0;exitDy=0;entryX=0.5;entryY=0;entryDx=0;entryDy=0;" edge="1" parent="1" source="4b1C1h9-l_e4xWgccLD7-65" target="4b1C1h9-l_e4xWgccLD7-70">
          <mxGeometry relative="1" as="geometry" />
        </mxCell>
        <mxCell id="4b1C1h9-l_e4xWgccLD7-73" value="" style="edgeStyle=orthogonalEdgeStyle;rounded=1;hachureGap=4;orthogonalLoop=1;jettySize=auto;html=1;fontFamily=Helvetica;" edge="1" parent="1" source="4b1C1h9-l_e4xWgccLD7-65" target="4b1C1h9-l_e4xWgccLD7-70">
          <mxGeometry relative="1" as="geometry" />
        </mxCell>
        <mxCell id="4b1C1h9-l_e4xWgccLD7-65" value="Login" style="rounded=1;whiteSpace=wrap;html=1;fillColor=#dae8fc;strokeColor=#6c8ebf;" vertex="1" parent="1">
          <mxGeometry x="120" y="300" width="120" height="60" as="geometry" />
        </mxCell>
        <mxCell id="4b1C1h9-l_e4xWgccLD7-68" style="edgeStyle=orthogonalEdgeStyle;rounded=1;orthogonalLoop=1;jettySize=auto;html=1;exitX=0;exitY=0.5;exitDx=0;exitDy=0;entryX=1;entryY=0.5;entryDx=0;entryDy=0;" edge="1" parent="1" source="4b1C1h9-l_e4xWgccLD7-59" target="4b1C1h9-l_e4xWgccLD7-65">
          <mxGeometry relative="1" as="geometry">
            <mxPoint x="335" y="339.57" as="sourcePoint" />
            <mxPoint x="440" y="339.57" as="targetPoint" />
          </mxGeometry>
        </mxCell>
        <mxCell id="4b1C1h9-l_e4xWgccLD7-69" value="SIM" style="edgeLabel;html=1;align=center;verticalAlign=middle;resizable=0;points=[];hachureGap=4;rounded=1;" vertex="1" connectable="0" parent="4b1C1h9-l_e4xWgccLD7-68">
          <mxGeometry x="-0.2927" y="1" relative="1" as="geometry">
            <mxPoint x="-11" y="-1" as="offset" />
          </mxGeometry>
        </mxCell>
        <mxCell id="4b1C1h9-l_e4xWgccLD7-75" style="edgeStyle=orthogonalEdgeStyle;rounded=0;orthogonalLoop=1;jettySize=auto;html=1;exitX=0.5;exitY=1;exitDx=0;exitDy=0;entryX=0.5;entryY=0;entryDx=0;entryDy=0;" edge="1" parent="1" source="4b1C1h9-l_e4xWgccLD7-70" target="4b1C1h9-l_e4xWgccLD7-74">
          <mxGeometry relative="1" as="geometry" />
        </mxCell>
        <mxCell id="4b1C1h9-l_e4xWgccLD7-70" value="Inserir EMAIL" style="rounded=1;whiteSpace=wrap;html=1;fillColor=#dae8fc;strokeColor=#6c8ebf;" vertex="1" parent="1">
          <mxGeometry x="120" y="380" width="120" height="60" as="geometry" />
        </mxCell>
        <mxCell id="4b1C1h9-l_e4xWgccLD7-77" style="edgeStyle=orthogonalEdgeStyle;rounded=0;orthogonalLoop=1;jettySize=auto;html=1;exitX=0;exitY=0.5;exitDx=0;exitDy=0;entryX=1;entryY=0.5;entryDx=0;entryDy=0;" edge="1" parent="1" source="4b1C1h9-l_e4xWgccLD7-74" target="4b1C1h9-l_e4xWgccLD7-76">
          <mxGeometry relative="1" as="geometry" />
        </mxCell>
        <mxCell id="4b1C1h9-l_e4xWgccLD7-78" value="SIM" style="edgeLabel;html=1;align=center;verticalAlign=middle;resizable=0;points=[];" vertex="1" connectable="0" parent="4b1C1h9-l_e4xWgccLD7-77">
          <mxGeometry x="-0.0235" y="1" relative="1" as="geometry">
            <mxPoint x="9" y="-1" as="offset" />
          </mxGeometry>
        </mxCell>
        <mxCell id="4b1C1h9-l_e4xWgccLD7-81" style="edgeStyle=orthogonalEdgeStyle;rounded=0;orthogonalLoop=1;jettySize=auto;html=1;exitX=0.5;exitY=1;exitDx=0;exitDy=0;entryX=0.5;entryY=0;entryDx=0;entryDy=0;" edge="1" parent="1" source="4b1C1h9-l_e4xWgccLD7-74" target="4b1C1h9-l_e4xWgccLD7-80">
          <mxGeometry relative="1" as="geometry" />
        </mxCell>
        <mxCell id="4b1C1h9-l_e4xWgccLD7-82" value="NÃO" style="edgeLabel;html=1;align=center;verticalAlign=middle;resizable=0;points=[];" vertex="1" connectable="0" parent="4b1C1h9-l_e4xWgccLD7-81">
          <mxGeometry x="-0.2157" y="1" relative="1" as="geometry">
            <mxPoint as="offset" />
          </mxGeometry>
        </mxCell>
        <mxCell id="4b1C1h9-l_e4xWgccLD7-74" value="Campo&lt;div&gt;vazio?&lt;/div&gt;" style="rhombus;whiteSpace=wrap;html=1;rounded=0;fillColor=#d5e8d4;strokeColor=#82b366;" vertex="1" parent="1">
          <mxGeometry x="140" y="470" width="80" height="80" as="geometry" />
        </mxCell>
        <mxCell id="4b1C1h9-l_e4xWgccLD7-79" style="edgeStyle=orthogonalEdgeStyle;rounded=1;orthogonalLoop=1;jettySize=auto;html=1;exitX=0.5;exitY=0;exitDx=0;exitDy=0;entryX=0;entryY=0.5;entryDx=0;entryDy=0;curved=0;" edge="1" parent="1" source="4b1C1h9-l_e4xWgccLD7-76" target="4b1C1h9-l_e4xWgccLD7-70">
          <mxGeometry relative="1" as="geometry" />
        </mxCell>
        <mxCell id="4b1C1h9-l_e4xWgccLD7-76" value="Mensagem de ERRO" style="rounded=1;whiteSpace=wrap;html=1;fillColor=#fff2cc;strokeColor=#d6b656;" vertex="1" parent="1">
          <mxGeometry x="-40" y="480" width="120" height="60" as="geometry" />
        </mxCell>
        <mxCell id="4b1C1h9-l_e4xWgccLD7-85" value="" style="edgeStyle=orthogonalEdgeStyle;rounded=0;orthogonalLoop=1;jettySize=auto;html=1;" edge="1" parent="1" source="4b1C1h9-l_e4xWgccLD7-80" target="4b1C1h9-l_e4xWgccLD7-83">
          <mxGeometry relative="1" as="geometry" />
        </mxCell>
        <mxCell id="4b1C1h9-l_e4xWgccLD7-80" value="Inserir SENHA" style="rounded=1;whiteSpace=wrap;html=1;fillColor=#dae8fc;strokeColor=#6c8ebf;" vertex="1" parent="1">
          <mxGeometry x="120" y="580" width="120" height="60" as="geometry" />
        </mxCell>
        <mxCell id="4b1C1h9-l_e4xWgccLD7-87" value="" style="edgeStyle=orthogonalEdgeStyle;rounded=0;orthogonalLoop=1;jettySize=auto;html=1;" edge="1" parent="1" source="4b1C1h9-l_e4xWgccLD7-83" target="4b1C1h9-l_e4xWgccLD7-86">
          <mxGeometry relative="1" as="geometry" />
        </mxCell>
        <mxCell id="4b1C1h9-l_e4xWgccLD7-89" value="SIM" style="edgeLabel;html=1;align=center;verticalAlign=middle;resizable=0;points=[];" vertex="1" connectable="0" parent="4b1C1h9-l_e4xWgccLD7-87">
          <mxGeometry x="-0.3929" relative="1" as="geometry">
            <mxPoint x="-5" as="offset" />
          </mxGeometry>
        </mxCell>
        <mxCell id="4b1C1h9-l_e4xWgccLD7-91" value="" style="edgeStyle=orthogonalEdgeStyle;rounded=0;orthogonalLoop=1;jettySize=auto;html=1;" edge="1" parent="1" source="4b1C1h9-l_e4xWgccLD7-83" target="4b1C1h9-l_e4xWgccLD7-90">
          <mxGeometry relative="1" as="geometry" />
        </mxCell>
        <mxCell id="4b1C1h9-l_e4xWgccLD7-100" value="NÃO" style="edgeLabel;html=1;align=center;verticalAlign=middle;resizable=0;points=[];" vertex="1" connectable="0" parent="4b1C1h9-l_e4xWgccLD7-91">
          <mxGeometry relative="1" as="geometry">
            <mxPoint y="-5" as="offset" />
          </mxGeometry>
        </mxCell>
        <mxCell id="4b1C1h9-l_e4xWgccLD7-83" value="Campo&lt;div&gt;vazio?&lt;/div&gt;" style="rhombus;whiteSpace=wrap;html=1;rounded=0;fillColor=#d5e8d4;strokeColor=#82b366;" vertex="1" parent="1">
          <mxGeometry x="140" y="670" width="80" height="80" as="geometry" />
        </mxCell>
        <mxCell id="4b1C1h9-l_e4xWgccLD7-86" value="Mensagem de ERRO" style="rounded=1;whiteSpace=wrap;html=1;fillColor=#fff2cc;strokeColor=#d6b656;" vertex="1" parent="1">
          <mxGeometry x="-40" y="680" width="120" height="60" as="geometry" />
        </mxCell>
        <mxCell id="4b1C1h9-l_e4xWgccLD7-95" value="" style="edgeStyle=orthogonalEdgeStyle;rounded=0;orthogonalLoop=1;jettySize=auto;html=1;" edge="1" parent="1" source="4b1C1h9-l_e4xWgccLD7-90" target="4b1C1h9-l_e4xWgccLD7-94">
          <mxGeometry relative="1" as="geometry" />
        </mxCell>
        <mxCell id="4b1C1h9-l_e4xWgccLD7-101" value="SIM" style="edgeLabel;html=1;align=center;verticalAlign=middle;resizable=0;points=[];" vertex="1" connectable="0" parent="4b1C1h9-l_e4xWgccLD7-95">
          <mxGeometry x="-0.1242" y="-1" relative="1" as="geometry">
            <mxPoint as="offset" />
          </mxGeometry>
        </mxCell>
        <mxCell id="4b1C1h9-l_e4xWgccLD7-90" value="Senha correta?" style="rhombus;whiteSpace=wrap;html=1;rounded=0;fillColor=#d5e8d4;strokeColor=#82b366;" vertex="1" parent="1">
          <mxGeometry x="140" y="780" width="80" height="80" as="geometry" />
        </mxCell>
        <mxCell id="4b1C1h9-l_e4xWgccLD7-105" value="" style="edgeStyle=orthogonalEdgeStyle;rounded=0;orthogonalLoop=1;jettySize=auto;html=1;" edge="1" parent="1" source="4b1C1h9-l_e4xWgccLD7-94" target="4b1C1h9-l_e4xWgccLD7-104">
          <mxGeometry relative="1" as="geometry" />
        </mxCell>
        <mxCell id="4b1C1h9-l_e4xWgccLD7-94" value="Enviar E-mail de validação" style="rounded=1;whiteSpace=wrap;html=1;fillColor=#dae8fc;strokeColor=#6c8ebf;" vertex="1" parent="1">
          <mxGeometry x="120" y="900" width="120" height="60" as="geometry" />
        </mxCell>
        <mxCell id="4b1C1h9-l_e4xWgccLD7-96" style="edgeStyle=orthogonalEdgeStyle;rounded=1;orthogonalLoop=1;jettySize=auto;html=1;exitX=0.5;exitY=0;exitDx=0;exitDy=0;entryX=0;entryY=0.5;entryDx=0;entryDy=0;" edge="1" parent="1" source="4b1C1h9-l_e4xWgccLD7-86" target="4b1C1h9-l_e4xWgccLD7-80">
          <mxGeometry relative="1" as="geometry">
            <mxPoint x="70" y="660" as="sourcePoint" />
            <mxPoint x="-30" y="600" as="targetPoint" />
          </mxGeometry>
        </mxCell>
        <mxCell id="4b1C1h9-l_e4xWgccLD7-98" style="edgeStyle=orthogonalEdgeStyle;rounded=1;orthogonalLoop=1;jettySize=auto;html=1;exitX=0.5;exitY=0;exitDx=0;exitDy=0;entryX=0.5;entryY=1;entryDx=0;entryDy=0;" edge="1" parent="1" target="4b1C1h9-l_e4xWgccLD7-86">
          <mxGeometry relative="1" as="geometry">
            <mxPoint x="140" y="820" as="sourcePoint" />
            <mxPoint x="40" y="760" as="targetPoint" />
          </mxGeometry>
        </mxCell>
        <mxCell id="4b1C1h9-l_e4xWgccLD7-99" value="NÃO" style="edgeLabel;html=1;align=center;verticalAlign=middle;resizable=0;points=[];" vertex="1" connectable="0" parent="4b1C1h9-l_e4xWgccLD7-98">
          <mxGeometry x="-0.43" y="1" relative="1" as="geometry">
            <mxPoint as="offset" />
          </mxGeometry>
        </mxCell>
        <mxCell id="4b1C1h9-l_e4xWgccLD7-113" value="" style="edgeStyle=orthogonalEdgeStyle;rounded=0;orthogonalLoop=1;jettySize=auto;html=1;" edge="1" parent="1" source="4b1C1h9-l_e4xWgccLD7-102" target="4b1C1h9-l_e4xWgccLD7-112">
          <mxGeometry relative="1" as="geometry" />
        </mxCell>
        <mxCell id="4b1C1h9-l_e4xWgccLD7-102" value="Inserir número de validação" style="rounded=1;whiteSpace=wrap;html=1;fillColor=#dae8fc;strokeColor=#6c8ebf;" vertex="1" parent="1">
          <mxGeometry x="120" y="1100" width="120" height="60" as="geometry" />
        </mxCell>
        <mxCell id="4b1C1h9-l_e4xWgccLD7-107" value="" style="edgeStyle=orthogonalEdgeStyle;rounded=0;orthogonalLoop=1;jettySize=auto;html=1;" edge="1" parent="1" source="4b1C1h9-l_e4xWgccLD7-104" target="4b1C1h9-l_e4xWgccLD7-106">
          <mxGeometry relative="1" as="geometry" />
        </mxCell>
        <mxCell id="4b1C1h9-l_e4xWgccLD7-109" value="NÃO" style="edgeLabel;html=1;align=center;verticalAlign=middle;resizable=0;points=[];" vertex="1" connectable="0" parent="4b1C1h9-l_e4xWgccLD7-107">
          <mxGeometry x="-0.3306" y="-1" relative="1" as="geometry">
            <mxPoint as="offset" />
          </mxGeometry>
        </mxCell>
        <mxCell id="4b1C1h9-l_e4xWgccLD7-110" style="edgeStyle=orthogonalEdgeStyle;rounded=0;orthogonalLoop=1;jettySize=auto;html=1;exitX=0.5;exitY=1;exitDx=0;exitDy=0;entryX=0.5;entryY=0;entryDx=0;entryDy=0;" edge="1" parent="1" source="4b1C1h9-l_e4xWgccLD7-104" target="4b1C1h9-l_e4xWgccLD7-102">
          <mxGeometry relative="1" as="geometry" />
        </mxCell>
        <mxCell id="4b1C1h9-l_e4xWgccLD7-111" value="SIM" style="edgeLabel;html=1;align=center;verticalAlign=middle;resizable=0;points=[];" vertex="1" connectable="0" parent="4b1C1h9-l_e4xWgccLD7-110">
          <mxGeometry x="-0.2056" relative="1" as="geometry">
            <mxPoint as="offset" />
          </mxGeometry>
        </mxCell>
        <mxCell id="4b1C1h9-l_e4xWgccLD7-104" value="Chegou&amp;nbsp;&lt;div&gt;E-mail?&lt;/div&gt;" style="rhombus;whiteSpace=wrap;html=1;rounded=0;fillColor=#d5e8d4;strokeColor=#82b366;" vertex="1" parent="1">
          <mxGeometry x="140" y="990" width="80" height="80" as="geometry" />
        </mxCell>
        <mxCell id="4b1C1h9-l_e4xWgccLD7-108" style="edgeStyle=orthogonalEdgeStyle;rounded=1;orthogonalLoop=1;jettySize=auto;html=1;exitX=0.5;exitY=0;exitDx=0;exitDy=0;entryX=0;entryY=0.5;entryDx=0;entryDy=0;curved=0;" edge="1" parent="1" source="4b1C1h9-l_e4xWgccLD7-106" target="4b1C1h9-l_e4xWgccLD7-94">
          <mxGeometry relative="1" as="geometry">
            <Array as="points">
              <mxPoint x="20" y="930" />
            </Array>
          </mxGeometry>
        </mxCell>
        <mxCell id="4b1C1h9-l_e4xWgccLD7-106" value="Reenviar E-mail" style="rounded=1;whiteSpace=wrap;html=1;fillColor=#fff2cc;strokeColor=#d6b656;" vertex="1" parent="1">
          <mxGeometry x="-40" y="1000" width="120" height="60" as="geometry" />
        </mxCell>
        <mxCell id="4b1C1h9-l_e4xWgccLD7-115" style="edgeStyle=orthogonalEdgeStyle;rounded=1;orthogonalLoop=1;jettySize=auto;html=1;exitX=0;exitY=0.5;exitDx=0;exitDy=0;entryX=0.5;entryY=1;entryDx=0;entryDy=0;curved=0;" edge="1" parent="1" source="4b1C1h9-l_e4xWgccLD7-112" target="4b1C1h9-l_e4xWgccLD7-106">
          <mxGeometry relative="1" as="geometry" />
        </mxCell>
        <mxCell id="4b1C1h9-l_e4xWgccLD7-116" value="NÃO" style="edgeLabel;html=1;align=center;verticalAlign=middle;resizable=0;points=[];" vertex="1" connectable="0" parent="4b1C1h9-l_e4xWgccLD7-115">
          <mxGeometry x="-0.6043" relative="1" as="geometry">
            <mxPoint as="offset" />
          </mxGeometry>
        </mxCell>
        <mxCell id="4b1C1h9-l_e4xWgccLD7-118" value="" style="edgeStyle=orthogonalEdgeStyle;rounded=0;orthogonalLoop=1;jettySize=auto;html=1;" edge="1" parent="1" source="4b1C1h9-l_e4xWgccLD7-112" target="4b1C1h9-l_e4xWgccLD7-117">
          <mxGeometry relative="1" as="geometry" />
        </mxCell>
        <mxCell id="4b1C1h9-l_e4xWgccLD7-119" value="SIM" style="edgeLabel;html=1;align=center;verticalAlign=middle;resizable=0;points=[];" vertex="1" connectable="0" parent="4b1C1h9-l_e4xWgccLD7-118">
          <mxGeometry x="0.2543" relative="1" as="geometry">
            <mxPoint as="offset" />
          </mxGeometry>
        </mxCell>
        <mxCell id="4b1C1h9-l_e4xWgccLD7-112" value="&lt;font style=&quot;font-size: 11px;&quot;&gt;Número de validação&lt;/font&gt;&lt;div style=&quot;font-size: 11px;&quot;&gt;&lt;font style=&quot;font-size: 11px;&quot;&gt;correto?&lt;/font&gt;&lt;/div&gt;" style="rhombus;whiteSpace=wrap;html=1;rounded=0;fillColor=#d5e8d4;strokeColor=#82b366;" vertex="1" parent="1">
          <mxGeometry x="140" y="1190" width="80" height="80" as="geometry" />
        </mxCell>
        <mxCell id="4b1C1h9-l_e4xWgccLD7-121" value="" style="edgeStyle=orthogonalEdgeStyle;rounded=0;orthogonalLoop=1;jettySize=auto;html=1;" edge="1" parent="1" source="4b1C1h9-l_e4xWgccLD7-117" target="4b1C1h9-l_e4xWgccLD7-120">
          <mxGeometry relative="1" as="geometry" />
        </mxCell>
        <mxCell id="4b1C1h9-l_e4xWgccLD7-117" value="Inserir número de validação" style="rounded=1;whiteSpace=wrap;html=1;fillColor=#dae8fc;strokeColor=#6c8ebf;" vertex="1" parent="1">
          <mxGeometry x="120" y="1300" width="120" height="60" as="geometry" />
        </mxCell>
        <mxCell id="4b1C1h9-l_e4xWgccLD7-122" value="" style="edgeStyle=orthogonalEdgeStyle;rounded=0;orthogonalLoop=1;jettySize=auto;html=1;" edge="1" parent="1" source="4b1C1h9-l_e4xWgccLD7-120" target="4b1C1h9-l_e4xWgccLD7-57">
          <mxGeometry relative="1" as="geometry" />
        </mxCell>
        <mxCell id="4b1C1h9-l_e4xWgccLD7-120" value="Efetuar login" style="rounded=1;whiteSpace=wrap;html=1;fillColor=#dae8fc;strokeColor=#6c8ebf;" vertex="1" parent="1">
          <mxGeometry x="120" y="1380" width="120" height="60" as="geometry" />
        </mxCell>
        <mxCell id="4b1C1h9-l_e4xWgccLD7-123" value="&lt;h1 style=&quot;text-align: justify;&quot;&gt;&lt;font face=&quot;Times New Roman&quot; style=&quot;font-size: 60px; font-weight: normal;&quot;&gt;&lt;i&gt;LOGIN E CADASTRO&lt;/i&gt;&lt;/font&gt;&lt;/h1&gt;" style="text;html=1;align=center;verticalAlign=middle;resizable=0;points=[];autosize=1;" vertex="1" parent="1">
          <mxGeometry x="90" y="-105" width="570" height="120" as="geometry" />
        </mxCell>
        <mxCell id="4b1C1h9-l_e4xWgccLD7-134" style="edgeStyle=orthogonalEdgeStyle;rounded=0;orthogonalLoop=1;jettySize=auto;html=1;exitX=0.5;exitY=1;exitDx=0;exitDy=0;entryX=0.5;entryY=0;entryDx=0;entryDy=0;" edge="1" parent="1" source="4b1C1h9-l_e4xWgccLD7-129" target="4b1C1h9-l_e4xWgccLD7-130">
          <mxGeometry relative="1" as="geometry" />
        </mxCell>
        <mxCell id="4b1C1h9-l_e4xWgccLD7-129" value="&lt;span&gt;INÍCIO&lt;/span&gt;" style="ellipse;whiteSpace=wrap;html=1;fillColor=#f8cecc;strokeColor=#b85450;rounded=1;fontStyle=0;" vertex="1" parent="1">
          <mxGeometry x="-690" y="40" width="130" height="80" as="geometry" />
        </mxCell>
        <mxCell id="4b1C1h9-l_e4xWgccLD7-135" style="edgeStyle=orthogonalEdgeStyle;rounded=0;orthogonalLoop=1;jettySize=auto;html=1;exitX=0.5;exitY=1;exitDx=0;exitDy=0;entryX=0.5;entryY=0;entryDx=0;entryDy=0;" edge="1" parent="1" source="4b1C1h9-l_e4xWgccLD7-130" target="4b1C1h9-l_e4xWgccLD7-131">
          <mxGeometry relative="1" as="geometry" />
        </mxCell>
        <mxCell id="4b1C1h9-l_e4xWgccLD7-130" value="Abrir APP" style="rounded=1;whiteSpace=wrap;html=1;fillColor=#dae8fc;strokeColor=#6c8ebf;" vertex="1" parent="1">
          <mxGeometry x="-685" y="140" width="120" height="60" as="geometry" />
        </mxCell>
        <mxCell id="4b1C1h9-l_e4xWgccLD7-137" style="edgeStyle=orthogonalEdgeStyle;rounded=0;orthogonalLoop=1;jettySize=auto;html=1;exitX=0.5;exitY=1;exitDx=0;exitDy=0;entryX=0.5;entryY=0;entryDx=0;entryDy=0;" edge="1" parent="1" source="4b1C1h9-l_e4xWgccLD7-131" target="4b1C1h9-l_e4xWgccLD7-136">
          <mxGeometry relative="1" as="geometry" />
        </mxCell>
        <mxCell id="4b1C1h9-l_e4xWgccLD7-131" value="Usuário" style="rounded=1;whiteSpace=wrap;html=1;fillColor=#dae8fc;strokeColor=#6c8ebf;" vertex="1" parent="1">
          <mxGeometry x="-685" y="220" width="120" height="60" as="geometry" />
        </mxCell>
        <mxCell id="4b1C1h9-l_e4xWgccLD7-139" style="edgeStyle=orthogonalEdgeStyle;rounded=0;orthogonalLoop=1;jettySize=auto;html=1;exitX=0.5;exitY=1;exitDx=0;exitDy=0;" edge="1" parent="1" source="4b1C1h9-l_e4xWgccLD7-136" target="4b1C1h9-l_e4xWgccLD7-138">
          <mxGeometry relative="1" as="geometry" />
        </mxCell>
        <mxCell id="4b1C1h9-l_e4xWgccLD7-136" value="Deletar conta" style="rounded=1;whiteSpace=wrap;html=1;fillColor=#dae8fc;strokeColor=#6c8ebf;" vertex="1" parent="1">
          <mxGeometry x="-685" y="300" width="120" height="60" as="geometry" />
        </mxCell>
        <mxCell id="4b1C1h9-l_e4xWgccLD7-143" style="edgeStyle=orthogonalEdgeStyle;rounded=0;orthogonalLoop=1;jettySize=auto;html=1;exitX=0;exitY=0.5;exitDx=0;exitDy=0;entryX=1;entryY=0.5;entryDx=0;entryDy=0;" edge="1" parent="1" source="4b1C1h9-l_e4xWgccLD7-138" target="4b1C1h9-l_e4xWgccLD7-142">
          <mxGeometry relative="1" as="geometry" />
        </mxCell>
        <mxCell id="4b1C1h9-l_e4xWgccLD7-151" value="SIM" style="edgeLabel;html=1;align=center;verticalAlign=middle;resizable=0;points=[];" vertex="1" connectable="0" parent="4b1C1h9-l_e4xWgccLD7-143">
          <mxGeometry x="-0.3143" relative="1" as="geometry">
            <mxPoint as="offset" />
          </mxGeometry>
        </mxCell>
        <mxCell id="4b1C1h9-l_e4xWgccLD7-184" style="edgeStyle=orthogonalEdgeStyle;rounded=1;orthogonalLoop=1;jettySize=auto;html=1;exitX=1;exitY=0.5;exitDx=0;exitDy=0;entryX=0.5;entryY=0;entryDx=0;entryDy=0;curved=0;" edge="1" parent="1" source="4b1C1h9-l_e4xWgccLD7-138" target="4b1C1h9-l_e4xWgccLD7-140">
          <mxGeometry relative="1" as="geometry" />
        </mxCell>
        <mxCell id="4b1C1h9-l_e4xWgccLD7-138" value="Possui&amp;nbsp;&lt;div&gt;conta?&lt;/div&gt;" style="rhombus;whiteSpace=wrap;html=1;rounded=0;fillColor=#d5e8d4;strokeColor=#82b366;" vertex="1" parent="1">
          <mxGeometry x="-665" y="380" width="80" height="80" as="geometry" />
        </mxCell>
        <mxCell id="4b1C1h9-l_e4xWgccLD7-140" value="FIM" style="ellipse;whiteSpace=wrap;html=1;fontStyle=0;fillColor=#f8cecc;strokeColor=#b85450;rounded=1;labelBackgroundColor=none;labelBorderColor=none;textShadow=0;" vertex="1" parent="1">
          <mxGeometry x="-585" y="800" width="130" height="80" as="geometry" />
        </mxCell>
        <mxCell id="4b1C1h9-l_e4xWgccLD7-153" value="" style="edgeStyle=orthogonalEdgeStyle;rounded=0;orthogonalLoop=1;jettySize=auto;html=1;" edge="1" parent="1" source="4b1C1h9-l_e4xWgccLD7-142" target="4b1C1h9-l_e4xWgccLD7-152">
          <mxGeometry relative="1" as="geometry" />
        </mxCell>
        <mxCell id="4b1C1h9-l_e4xWgccLD7-142" value="Deletar conta" style="rounded=1;whiteSpace=wrap;html=1;fillColor=#dae8fc;strokeColor=#6c8ebf;" vertex="1" parent="1">
          <mxGeometry x="-840" y="390" width="120" height="60" as="geometry" />
        </mxCell>
        <mxCell id="4b1C1h9-l_e4xWgccLD7-155" value="" style="edgeStyle=orthogonalEdgeStyle;rounded=0;orthogonalLoop=1;jettySize=auto;html=1;" edge="1" parent="1" source="4b1C1h9-l_e4xWgccLD7-152" target="4b1C1h9-l_e4xWgccLD7-154">
          <mxGeometry relative="1" as="geometry" />
        </mxCell>
        <mxCell id="4b1C1h9-l_e4xWgccLD7-152" value="Digitar senha" style="rounded=1;whiteSpace=wrap;html=1;fillColor=#dae8fc;strokeColor=#6c8ebf;" vertex="1" parent="1">
          <mxGeometry x="-840" y="480" width="120" height="60" as="geometry" />
        </mxCell>
        <mxCell id="4b1C1h9-l_e4xWgccLD7-159" value="" style="edgeStyle=orthogonalEdgeStyle;rounded=0;orthogonalLoop=1;jettySize=auto;html=1;" edge="1" parent="1" source="4b1C1h9-l_e4xWgccLD7-154" target="4b1C1h9-l_e4xWgccLD7-158">
          <mxGeometry relative="1" as="geometry" />
        </mxCell>
        <mxCell id="4b1C1h9-l_e4xWgccLD7-160" value="NÃO" style="edgeLabel;html=1;align=center;verticalAlign=middle;resizable=0;points=[];" vertex="1" connectable="0" parent="4b1C1h9-l_e4xWgccLD7-159">
          <mxGeometry x="-0.1023" y="1" relative="1" as="geometry">
            <mxPoint as="offset" />
          </mxGeometry>
        </mxCell>
        <mxCell id="4b1C1h9-l_e4xWgccLD7-163" value="" style="edgeStyle=orthogonalEdgeStyle;rounded=0;orthogonalLoop=1;jettySize=auto;html=1;" edge="1" parent="1" source="4b1C1h9-l_e4xWgccLD7-154" target="4b1C1h9-l_e4xWgccLD7-162">
          <mxGeometry relative="1" as="geometry" />
        </mxCell>
        <mxCell id="4b1C1h9-l_e4xWgccLD7-154" value="Senha&lt;div&gt;correta?&lt;/div&gt;" style="rhombus;whiteSpace=wrap;html=1;rounded=0;fillColor=#d5e8d4;strokeColor=#82b366;" vertex="1" parent="1">
          <mxGeometry x="-820" y="560" width="80" height="80" as="geometry" />
        </mxCell>
        <mxCell id="4b1C1h9-l_e4xWgccLD7-161" style="edgeStyle=orthogonalEdgeStyle;rounded=1;orthogonalLoop=1;jettySize=auto;html=1;exitX=0.5;exitY=0;exitDx=0;exitDy=0;entryX=0;entryY=0.5;entryDx=0;entryDy=0;curved=0;" edge="1" parent="1" source="4b1C1h9-l_e4xWgccLD7-158" target="4b1C1h9-l_e4xWgccLD7-152">
          <mxGeometry relative="1" as="geometry" />
        </mxCell>
        <mxCell id="4b1C1h9-l_e4xWgccLD7-158" value="Mensagem de ERRO" style="rounded=1;whiteSpace=wrap;html=1;fillColor=#fff2cc;strokeColor=#d6b656;" vertex="1" parent="1">
          <mxGeometry x="-1000" y="570" width="120" height="60" as="geometry" />
        </mxCell>
        <mxCell id="4b1C1h9-l_e4xWgccLD7-165" value="" style="edgeStyle=orthogonalEdgeStyle;rounded=0;orthogonalLoop=1;jettySize=auto;html=1;" edge="1" parent="1" source="4b1C1h9-l_e4xWgccLD7-162" target="4b1C1h9-l_e4xWgccLD7-164">
          <mxGeometry relative="1" as="geometry" />
        </mxCell>
        <mxCell id="4b1C1h9-l_e4xWgccLD7-162" value="Enviar E-mail de&lt;div&gt;validação&lt;/div&gt;" style="rounded=1;whiteSpace=wrap;html=1;fillColor=#dae8fc;strokeColor=#6c8ebf;" vertex="1" parent="1">
          <mxGeometry x="-840" y="670" width="120" height="60" as="geometry" />
        </mxCell>
        <mxCell id="4b1C1h9-l_e4xWgccLD7-167" value="" style="edgeStyle=orthogonalEdgeStyle;rounded=0;orthogonalLoop=1;jettySize=auto;html=1;" edge="1" parent="1" source="4b1C1h9-l_e4xWgccLD7-164" target="4b1C1h9-l_e4xWgccLD7-166">
          <mxGeometry relative="1" as="geometry" />
        </mxCell>
        <mxCell id="4b1C1h9-l_e4xWgccLD7-172" value="NÃO" style="edgeLabel;html=1;align=center;verticalAlign=middle;resizable=0;points=[];" vertex="1" connectable="0" parent="4b1C1h9-l_e4xWgccLD7-167">
          <mxGeometry x="-0.0667" y="1" relative="1" as="geometry">
            <mxPoint as="offset" />
          </mxGeometry>
        </mxCell>
        <mxCell id="4b1C1h9-l_e4xWgccLD7-170" value="" style="edgeStyle=orthogonalEdgeStyle;rounded=0;orthogonalLoop=1;jettySize=auto;html=1;" edge="1" parent="1" source="4b1C1h9-l_e4xWgccLD7-164" target="4b1C1h9-l_e4xWgccLD7-169">
          <mxGeometry relative="1" as="geometry" />
        </mxCell>
        <mxCell id="4b1C1h9-l_e4xWgccLD7-171" value="SIM" style="edgeLabel;html=1;align=center;verticalAlign=middle;resizable=0;points=[];" vertex="1" connectable="0" parent="4b1C1h9-l_e4xWgccLD7-170">
          <mxGeometry x="-0.45" relative="1" as="geometry">
            <mxPoint as="offset" />
          </mxGeometry>
        </mxCell>
        <mxCell id="4b1C1h9-l_e4xWgccLD7-164" value="&lt;span style=&quot;font-size: 11px;&quot;&gt;Chegou&amp;nbsp;&lt;/span&gt;&lt;div&gt;&lt;span style=&quot;font-size: 11px;&quot;&gt;E-mail?&lt;/span&gt;&lt;/div&gt;" style="rhombus;whiteSpace=wrap;html=1;rounded=0;fillColor=#d5e8d4;strokeColor=#82b366;" vertex="1" parent="1">
          <mxGeometry x="-820" y="770" width="80" height="80" as="geometry" />
        </mxCell>
        <mxCell id="4b1C1h9-l_e4xWgccLD7-168" style="edgeStyle=orthogonalEdgeStyle;rounded=1;orthogonalLoop=1;jettySize=auto;html=1;exitX=0.5;exitY=0;exitDx=0;exitDy=0;entryX=0;entryY=0.5;entryDx=0;entryDy=0;curved=0;" edge="1" parent="1" source="4b1C1h9-l_e4xWgccLD7-166" target="4b1C1h9-l_e4xWgccLD7-162">
          <mxGeometry relative="1" as="geometry" />
        </mxCell>
        <mxCell id="4b1C1h9-l_e4xWgccLD7-166" value="Reenviar E-mail" style="rounded=1;whiteSpace=wrap;html=1;fillColor=#fff2cc;strokeColor=#d6b656;" vertex="1" parent="1">
          <mxGeometry x="-1000" y="780" width="120" height="60" as="geometry" />
        </mxCell>
        <mxCell id="4b1C1h9-l_e4xWgccLD7-174" value="" style="edgeStyle=orthogonalEdgeStyle;rounded=0;orthogonalLoop=1;jettySize=auto;html=1;" edge="1" parent="1" source="4b1C1h9-l_e4xWgccLD7-169" target="4b1C1h9-l_e4xWgccLD7-173">
          <mxGeometry relative="1" as="geometry" />
        </mxCell>
        <mxCell id="4b1C1h9-l_e4xWgccLD7-169" value="Inserir número de validação" style="rounded=1;whiteSpace=wrap;html=1;fillColor=#dae8fc;strokeColor=#6c8ebf;" vertex="1" parent="1">
          <mxGeometry x="-840" y="890" width="120" height="60" as="geometry" />
        </mxCell>
        <mxCell id="4b1C1h9-l_e4xWgccLD7-177" style="edgeStyle=orthogonalEdgeStyle;rounded=1;orthogonalLoop=1;jettySize=auto;html=1;exitX=0;exitY=0.5;exitDx=0;exitDy=0;entryX=0.5;entryY=1;entryDx=0;entryDy=0;curved=0;" edge="1" parent="1" source="4b1C1h9-l_e4xWgccLD7-173" target="4b1C1h9-l_e4xWgccLD7-166">
          <mxGeometry relative="1" as="geometry">
            <mxPoint x="-940" y="850" as="targetPoint" />
          </mxGeometry>
        </mxCell>
        <mxCell id="4b1C1h9-l_e4xWgccLD7-178" value="NÃO" style="edgeLabel;html=1;align=center;verticalAlign=middle;resizable=0;points=[];" vertex="1" connectable="0" parent="4b1C1h9-l_e4xWgccLD7-177">
          <mxGeometry x="-0.6387" y="3" relative="1" as="geometry">
            <mxPoint as="offset" />
          </mxGeometry>
        </mxCell>
        <mxCell id="4b1C1h9-l_e4xWgccLD7-180" value="" style="edgeStyle=orthogonalEdgeStyle;rounded=0;orthogonalLoop=1;jettySize=auto;html=1;" edge="1" parent="1" source="4b1C1h9-l_e4xWgccLD7-173" target="4b1C1h9-l_e4xWgccLD7-179">
          <mxGeometry relative="1" as="geometry" />
        </mxCell>
        <mxCell id="4b1C1h9-l_e4xWgccLD7-181" value="SIM" style="edgeLabel;html=1;align=center;verticalAlign=middle;resizable=0;points=[];" vertex="1" connectable="0" parent="4b1C1h9-l_e4xWgccLD7-180">
          <mxGeometry x="-0.6141" y="-1" relative="1" as="geometry">
            <mxPoint as="offset" />
          </mxGeometry>
        </mxCell>
        <mxCell id="4b1C1h9-l_e4xWgccLD7-173" value="&lt;font style=&quot;font-size: 11px;&quot;&gt;Número de validação&lt;/font&gt;&lt;div style=&quot;font-size: 11px;&quot;&gt;&lt;font style=&quot;font-size: 11px;&quot;&gt;correto?&lt;/font&gt;&lt;/div&gt;" style="rhombus;whiteSpace=wrap;html=1;rounded=0;fillColor=#d5e8d4;strokeColor=#82b366;" vertex="1" parent="1">
          <mxGeometry x="-820" y="990" width="80" height="80" as="geometry" />
        </mxCell>
        <mxCell id="4b1C1h9-l_e4xWgccLD7-183" value="" style="edgeStyle=orthogonalEdgeStyle;rounded=0;orthogonalLoop=1;jettySize=auto;html=1;" edge="1" parent="1" source="4b1C1h9-l_e4xWgccLD7-179" target="4b1C1h9-l_e4xWgccLD7-182">
          <mxGeometry relative="1" as="geometry" />
        </mxCell>
        <mxCell id="4b1C1h9-l_e4xWgccLD7-179" value="Inserir número de validação" style="rounded=1;whiteSpace=wrap;html=1;fillColor=#dae8fc;strokeColor=#6c8ebf;" vertex="1" parent="1">
          <mxGeometry x="-840" y="1110" width="120" height="60" as="geometry" />
        </mxCell>
        <mxCell id="4b1C1h9-l_e4xWgccLD7-186" style="edgeStyle=orthogonalEdgeStyle;rounded=1;orthogonalLoop=1;jettySize=auto;html=1;exitX=1;exitY=0.5;exitDx=0;exitDy=0;entryX=0.5;entryY=1;entryDx=0;entryDy=0;curved=0;" edge="1" parent="1" source="4b1C1h9-l_e4xWgccLD7-182" target="4b1C1h9-l_e4xWgccLD7-140">
          <mxGeometry relative="1" as="geometry" />
        </mxCell>
        <mxCell id="4b1C1h9-l_e4xWgccLD7-182" value="Efetuar exclusão de conta" style="rounded=1;whiteSpace=wrap;html=1;fillColor=#dae8fc;strokeColor=#6c8ebf;" vertex="1" parent="1">
          <mxGeometry x="-840" y="1210" width="120" height="60" as="geometry" />
        </mxCell>
      </root>
    </mxGraphModel>
  </diagram>
</mxfile>
